<svg width="41" height="50" viewBox="0 0 41 50" fill="none" xmlns="http://www.w3.org/2000/svg">
<path d="M25.6641 1.27083C25.6641 9.35322 29.9253 13.4161 33.596 17.2783C37.1071 20.9718 40.4495 24.4897 40.4495 31.1905C40.4495 42.1616 31.8929 50 20.9218 50C9.94845 50 0.550537 42.2003 0.550537 31.1905C0.550537 26.5417 2.74384 22.0456 6.27091 20.0211C6.96629 19.6221 7.80303 20.037 8.1017 20.7826C10.3839 26.4801 13.1974 26.3798 14.6565 24.9207C15.5411 24.0383 15.7281 22.3762 14.6474 20.2194C9.16415 9.24834 18.8949 1.34379 24.2232 0.0328212C24.9892 -0.154134 25.6253 0.484249 25.6641 1.27083ZM20.9218 46.5801C30.1761 46.5801 37.0296 40.1051 37.0296 31.1905C37.0296 25.8623 34.5376 23.2358 30.9239 19.4306L30.876 19.3781C27.5929 15.9194 23.7193 11.738 22.5565 4.42855C20.8349 5.44048 19.3495 6.80859 18.1996 8.44124C16.4052 11.0495 15.5845 14.4443 17.7071 18.6896C19.0819 21.4369 19.4786 24.9366 17.0755 27.3397C15.5776 28.8376 13.0583 29.8476 10.336 28.6757C8.62153 27.937 7.25128 26.4984 6.14551 24.5946C4.85279 26.2043 3.97045 28.5617 3.97045 31.1905C3.97045 39.9614 11.4669 46.5801 20.9218 46.5801Z" fill="#FF4444"/>
</svg>
